<?xml version="1.0" encoding="utf-8"?>
<!-- Generator: Adobe Illustrator 24.0.0, SVG Export Plug-In . SVG Version: 6.00 Build 0)  -->
<svg version="1.1" id="图层_1" xmlns="http://www.w3.org/2000/svg" xmlns:xlink="http://www.w3.org/1999/xlink" x="0px" y="0px"
	 viewBox="0 0 128 128" style="enable-background:new 0 0 128 128;" xml:space="preserve">
<style type="text/css">
	.st0{fill:url(#SVGID_1_);}
	.st1{fill:url(#SVGID_2_);}
	.st2{fill:url(#SVGID_3_);}
</style>
<g>
	
		<linearGradient id="SVGID_1_" gradientUnits="userSpaceOnUse" x1="57.1508" y1="96.2885" x2="4.9881" y2="68.6729" gradientTransform="matrix(1 0 0 -1 0 130)">
		<stop  offset="0" style="stop-color:#61D2FF"/>
		<stop  offset="1" style="stop-color:#3189F0"/>
	</linearGradient>
	<path class="st0" d="M36.3,27.3c0-0.4-0.1-11.3,2.6-14.7c2.8-3.4,10.6-7.9,10.6-7.9s9-5.6,10.6-4.6c1.7,1,1.4,11.8,1.4,11.8
		s-0.1,10.7-1.8,13.8C58,28.8,49,34.2,49,34.2s-7.9,5.1-10.6,5C35.8,39.2,36.3,27.6,36.3,27.3z M37.8,73.9c2.7,0.1,10.6-5,10.6-5
		s9-5.4,10.7-8.5s1.8-13.8,1.8-13.8s0.3-10.8-1.4-11.8s-10.7,4.6-10.7,4.6s-7.9,4.5-10.6,7.9S35.6,61.6,35.6,62
		C35.7,62.3,35.2,73.8,37.8,73.9z M28.9,78.8c1.7-3.1,1.8-13.8,1.8-13.8s0.3-10.8-1.4-11.8c-1.7-1-10.7,4.6-10.7,4.6
		S10.7,62.2,8,65.7C5.3,69,5.5,80,5.5,80.3c0,0.4-0.5,11.9,2.1,12c2.7,0.1,10.6-5,10.6-5S27.2,81.9,28.9,78.8z M8.2,57.7
		c2.7,0.1,10.6-5,10.6-5s9-5.4,10.7-8.5s1.8-13.8,1.8-13.8s0.3-10.8-1.4-11.8c-1.7-1-10.7,4.6-10.7,4.6S11.4,27.6,8.6,31
		C5.9,34.4,6,45.3,6,45.7C6,46.1,5.5,57.6,8.2,57.7z"/>
	
		<linearGradient id="SVGID_2_" gradientUnits="userSpaceOnUse" x1="94.8093" y1="53.9421" x2="94.1303" y2="110.9795" gradientTransform="matrix(1 0 0 -1 0 130)">
		<stop  offset="0" style="stop-color:#FF8DA8"/>
		<stop  offset="1" style="stop-color:#FC4F60"/>
	</linearGradient>
	<path class="st1" d="M98.5,44.2c1.7,3.1,10.7,8.5,10.7,8.5s7.9,5.2,10.6,5c2.6-0.1,2.1-11.6,2.1-12c0-0.4,0.2-11.3-2.6-14.7
		c-2.8-3.4-10.6-7.9-10.6-7.9s-9-5.6-10.6-4.6c-1.7,1-1.4,11.8-1.4,11.8S96.8,41.1,98.5,44.2z M89.7,47.2
		c-2.8-3.4-10.6-7.9-10.6-7.9s-9-5.6-10.7-4.6S67,46.5,67,46.5s0.1,10.7,1.8,13.8c1.7,3.1,10.7,8.5,10.7,8.5s7.9,5.1,10.6,5
		s2.1-11.6,2.1-12C92.3,61.5,92.4,50.6,89.7,47.2z M68.3,25.7C70,28.8,79,34.2,79,34.2s7.9,5.1,10.6,5c2.6-0.1,2.1-11.6,2.1-12
		s0.1-11.3-2.6-14.7c-2.8-3.4-10.6-7.9-10.6-7.9S69.5-1,67.8,0s-1.4,11.8-1.4,11.8S66.5,22.7,68.3,25.7L68.3,25.7z M122.5,80.3
		c0-0.4,0.1-11.3-2.6-14.7c-2.8-3.4-10.6-7.9-10.6-7.9s-9-5.6-10.6-4.6C97,54.2,97.3,65,97.3,65s0.1,10.7,1.8,13.8
		c1.7,3.1,10.7,8.5,10.7,8.5s7.9,5.1,10.6,5C123.1,92.2,122.5,80.7,122.5,80.3z"/>
	
		<linearGradient id="SVGID_3_" gradientUnits="userSpaceOnUse" x1="94.0106" y1="15.3841" x2="43.3821" y2="42.2326" gradientTransform="matrix(1 0 0 -1 0 130)">
		<stop  offset="0" style="stop-color:#2497FF"/>
		<stop  offset="1" style="stop-color:#216DF4"/>
	</linearGradient>
	<path class="st2" d="M41.8,82c0.1,1.9,9.6,7,9.6,7s9.4,5.2,12.9,5.2c3.5,0,12.6-5.2,12.6-5.2s8.4-4.4,9.6-6.8s-9.1-7.6-9.4-7.7
		c-0.3-0.2-9.8-5.6-14.1-4.9C58.7,70.3,51,75,51,75S41.7,80.1,41.8,82z M107.6,91c-0.3-0.2-9.8-5.7-14.1-4.9
		c-4.3,0.7-12.1,5.4-12.1,5.4s-9.3,5.1-9.2,7c0.1,1.9,9.6,7,9.6,7s9.4,5.2,12.9,5.2s12.6-5.2,12.6-5.2s8.4-4.4,9.6-6.8
		C118.2,96.4,108,91.2,107.6,91z M55.7,99.6c1.2-2.4-9.1-7.5-9.4-7.7c-0.3-0.2-9.8-5.6-14.1-4.9s-12.1,5.4-12.1,5.4s-9.3,5.1-9.2,7
		s9.6,7,9.6,7s9.4,5.2,12.9,5.2c3.5,0,12.6-5.2,12.6-5.2S54.4,102,55.7,99.6z M76.7,108.3c-0.3-0.2-9.8-5.6-14.1-4.9
		c-4.4,0.7-12.1,5.4-12.1,5.4s-9.3,5.1-9.2,7.1s9.6,7,9.6,7s9.4,5.2,12.9,5.2c3.5,0,12.6-5.2,12.6-5.2s8.4-4.4,9.6-6.8
		C87.3,113.7,77.1,108.5,76.7,108.3L76.7,108.3z"/>
</g>
</svg>
